<svg width="115" height="24" viewBox="0 0 115 24" fill="none" xmlns="http://www.w3.org/2000/svg">
<path d="M15.2238 15.5079L13.0111 20.1581C12.8687 20.4573 12.5107 20.5844 12.2115 20.442C12.1448 20.4103 12.0845 20.3665 12.0337 20.3129L8.49229 16.5741C8.39749 16.474 8.27113 16.4096 8.13445 16.3918L3.02816 15.7243C2.69958 15.6814 2.46804 15.3802 2.51099 15.0516C2.52056 14.9784 2.54359 14.9075 2.5789 14.8426L5.04031 10.3192C5.1062 10.1981 5.12839 10.058 5.10314 9.92253L4.16 4.85991C4.09931 4.53414 4.3142 4.22086 4.63997 4.16017C4.7126 4.14664 4.78711 4.14664 4.85974 4.16017L9.92237 5.10331C10.0579 5.12855 10.198 5.10637 10.319 5.04048L14.8424 2.57907C15.1335 2.42068 15.4979 2.52825 15.6562 2.81931C15.6916 2.88421 15.7146 2.95507 15.7241 3.02833L16.3916 8.13462C16.4095 8.2713 16.4739 8.39766 16.5739 8.49245L20.3127 12.0338C20.5533 12.2617 20.5636 12.6415 20.3357 12.8821C20.2849 12.9357 20.2246 12.9795 20.1579 13.0112L15.5078 15.224C15.3833 15.2832 15.283 15.3835 15.2238 15.5079ZM16.0206 17.435L17.4348 16.0208L21.6775 20.2634L20.2633 21.6776L16.0206 17.435Z" fill="white"/>
<path d="M37.95 13.975H41.5L39.725 9.075L37.95 13.975ZM42.5 16.725H36.95L35.75 20H32.5L38.225 4.25H41.225L46.95 20H43.7L42.5 16.725ZM48.2291 5.7C48.2291 4.8 48.9791 4.05 49.8791 4.05C50.7791 4.05 51.5041 4.8 51.5041 5.7C51.5041 6.6 50.7791 7.35 49.8791 7.35C48.9791 7.35 48.2291 6.6 48.2291 5.7ZM48.3791 20V7.75H51.3791V20H48.3791ZM68.0391 10.75V13.5H61.4141V17.25H69.0391V20H58.4141V4.25H68.7891V7H61.4141V10.75H68.0391ZM79.3283 13.925C79.3283 11.825 77.7783 10.5 75.8533 10.5C73.9783 10.5 72.4533 11.825 72.4533 13.925C72.4533 16 73.9783 17.325 75.8533 17.325C77.7783 17.325 79.3283 16 79.3283 13.925ZM79.3283 9.2V3.875H82.3283V20H79.5783L79.3533 18.6C78.3283 19.65 76.9533 20.2 75.5283 20.2C72.1783 20.2 69.5283 17.575 69.5283 13.925C69.5283 10.25 72.1783 7.625 75.5283 7.625C76.9533 7.625 78.3033 8.175 79.3283 9.2ZM83.4811 5.7C83.4811 4.8 84.2311 4.05 85.1311 4.05C86.0311 4.05 86.7561 4.8 86.7561 5.7C86.7561 6.6 86.0311 7.35 85.1311 7.35C84.2311 7.35 83.4811 6.6 83.4811 5.7ZM83.6311 20V7.75H86.6311V20H83.6311ZM88.4414 10.625H87.6914V7.75H88.4414L88.6914 5.075H91.4414V7.75H93.4914V10.625H91.4414V15.3C91.4414 16.625 91.8914 17.125 93.1164 17.125H93.6164V20H92.7164C89.9664 20 88.4414 18.325 88.4414 15.3V10.625ZM94.027 13.925C94.027 10.25 96.852 7.625 100.352 7.625C103.802 7.625 106.652 10.25 106.652 13.925C106.652 17.575 103.802 20.2 100.352 20.2C96.852 20.2 94.027 17.575 94.027 13.925ZM97.002 13.9C97.002 15.975 98.502 17.275 100.352 17.275C102.152 17.275 103.652 15.975 103.652 13.9C103.652 11.85 102.152 10.55 100.352 10.55C98.502 10.55 97.002 11.85 97.002 13.9ZM114.636 7.625V10.6H114.011C111.686 10.6 110.661 12.25 110.661 12.25V20H107.661V7.75H110.411L110.661 9.4C111.611 8.275 113.036 7.625 114.636 7.625Z" fill="white"/>
</svg>
